<?xml version="1.0" standalone="no"?>
<!DOCTYPE svg PUBLIC "-//W3C//DTD SVG 20010904//EN"
 "http://www.w3.org/TR/2001/REC-SVG-20010904/DTD/svg10.dtd">
<svg version="1.0" xmlns="http://www.w3.org/2000/svg"
 width="1024.000000pt" height="1024.000000pt" viewBox="0 0 1024.000000 1024.000000"
 preserveAspectRatio="xMidYMid meet">
<metadata>
Created by potrace 1.11, written by Peter Selinger 2001-2013
</metadata>
<g transform="translate(0.000000,1024.000000) scale(0.100000,-0.100000)"
fill="#000000" stroke="none">
<path d="M4324 8867 c-62 -16 -114 -47 -150 -90 -50 -59 -63 -109 -79 -291
-18 -209 -35 -513 -35 -622 l0 -81 -127 -6 c-71 -4 -421 -7 -779 -7 -736 0
-720 1 -801 -73 -58 -53 -83 -109 -90 -202 -12 -152 52 -267 175 -317 57 -23
60 -23 482 -21 234 1 578 5 764 9 l339 6 -6 -273 c-4 -150 -7 -449 -7 -666 l0
-393 -159 -79 c-182 -91 -292 -155 -441 -254 -737 -491 -1211 -1164 -1335
-1897 -22 -130 -31 -429 -16 -557 53 -451 263 -780 606 -948 209 -103 413
-133 696 -105 375 38 748 194 1128 471 68 49 125 89 126 87 2 -2 25 -53 52
-114 60 -135 88 -173 154 -209 114 -62 298 -17 394 97 47 56 67 113 67 193 0
69 -4 83 -86 275 -47 111 -86 206 -86 212 0 5 30 42 66 81 266 288 567 743
804 1216 212 424 359 807 496 1294 7 23 41 22 193 -8 244 -50 477 -143 662
-266 115 -77 297 -255 366 -359 110 -165 183 -345 225 -552 33 -164 33 -473 0
-634 -141 -699 -691 -1202 -1549 -1417 -185 -47 -350 -73 -599 -96 -187 -18
-213 -22 -263 -48 -104 -53 -159 -163 -148 -296 11 -123 77 -220 186 -271 40
-18 63 -21 186 -20 400 1 918 107 1316 269 1026 418 1624 1265 1585 2245 -33
836 -445 1447 -1208 1790 -176 80 -472 170 -673 205 -49 9 -99 18 -111 20 -20
4 -20 6 13 157 37 172 39 213 18 285 -30 102 -132 167 -280 180 -128 10 -221
-27 -269 -110 -18 -30 -37 -98 -62 -223 -20 -98 -39 -189 -41 -200 -6 -26 -55
-34 -214 -34 -281 0 -743 -58 -1048 -130 -68 -17 -130 -30 -138 -30 -14 0 -14
51 -8 438 4 241 10 496 14 567 l6 130 290 12 c824 34 1602 90 2265 164 323 35
568 69 610 84 120 42 181 127 188 262 10 186 -76 306 -239 333 -62 11 -91 9
-252 -14 -607 -86 -1213 -145 -1962 -191 -304 -19 -849 -44 -853 -40 -4 4 25
444 44 645 19 218 9 275 -59 348 -61 64 -229 98 -343 69z m1576 -3172 c0 -2
-23 -79 -50 -170 -189 -627 -505 -1258 -873 -1748 l-91 -121 -13 43 c-81 280
-170 798 -207 1206 -14 149 -36 503 -36 576 0 24 7 28 118 62 256 80 479 118
887 150 68 6 265 7 265 2z m-1825 -805 c48 -566 157 -1168 290 -1602 27 -87
32 -115 23 -126 -25 -30 -210 -172 -304 -234 -200 -132 -373 -211 -564 -260
-372 -94 -646 -4 -768 254 -53 111 -72 189 -78 333 -23 479 216 1014 646 1445
194 195 410 360 645 494 l80 46 7 -78 c4 -42 14 -165 23 -272z"/>
</g>
</svg>
