<?xml version="1.0" encoding="UTF-8" ?>
<!DOCTYPE svg PUBLIC "-//W3C//DTD SVG 1.1//EN" "http://www.w3.org/Graphics/SVG/1.1/DTD/svg11.dtd">
<svg width="120pt" height="120pt" viewBox="0 0 500 500" version="1.1" xmlns="http://www.w3.org/2000/svg"><g><path fill="#555" d="M 249.89 0.00 L 249.97 0.00 C 278.83 22.00 307.55 44.17 336.44 66.14 C 336.50 53.92 336.39 41.71 336.50 29.50 C 356.86 29.50 377.23 29.57 397.60 29.47 C 397.83 57.34 397.64 85.22 397.70 113.09 C 416.30 127.46 435.10 141.58 453.63 156.05 C 448.99 156.20 444.34 156.21 439.70 156.16 C 422.86 143.06 405.79 130.23 388.92 117.16 C 388.96 90.78 388.92 64.40 388.94 38.02 C 388.11 38.01 386.44 37.99 385.61 37.98 C 385.61 37.34 385.60 36.07 385.60 35.44 C 371.22 35.43 356.84 35.41 342.46 35.44 C 342.47 50.82 342.54 66.20 342.46 81.57 C 311.60 58.05 280.84 34.39 250.00 10.84 C 175.08 68.19 100.15 125.53 25.28 182.94 C 45.47 182.90 65.67 183.08 85.86 182.85 C 86.24 185.56 86.35 188.30 86.12 191.04 C 62.07 190.99 38.03 191.86 13.98 191.08 C 9.90 190.69 5.49 191.88 1.64 190.25 C 84.31 126.73 167.24 63.54 249.89 0.00 Z"/><path fill="#555" d="M 457.39 159.36 L 458.68 159.90 C 472.55 170.27 486.18 180.97 500.00 191.40 L 500.00 191.69 C 468.52 191.09 437.01 191.66 405.51 191.49 C 405.52 255.30 405.47 319.11 405.54 382.92 C 410.28 383.82 414.20 387.67 414.29 392.67 C 418.67 391.82 423.48 392.06 427.17 394.82 C 434.50 400.15 438.28 410.13 436.15 418.97 C 435.27 418.39 434.39 417.82 433.50 417.27 C 434.50 409.30 431.01 400.25 423.68 396.39 C 419.07 393.97 413.94 396.08 409.72 398.29 C 410.37 395.73 411.70 392.99 410.67 390.35 C 409.59 387.27 406.06 385.71 402.98 386.28 C 398.15 387.04 394.57 390.74 391.56 394.30 C 388.96 393.28 387.36 390.91 385.55 388.94 C 385.60 387.61 385.72 386.25 386.44 385.09 C 387.91 386.79 389.40 388.48 390.88 390.17 C 392.70 388.45 394.60 386.82 396.63 385.34 C 396.83 320.71 396.78 256.07 396.66 191.43 C 392.97 191.48 389.28 191.54 385.61 191.38 C 409.52 190.62 433.48 191.46 457.41 190.98 C 457.82 188.33 457.83 185.65 457.71 182.98 C 463.39 182.92 469.06 182.98 474.74 182.94 C 468.97 178.42 463.07 174.06 457.32 169.52 C 457.32 166.13 457.31 162.74 457.39 159.36 Z"/><path fill="#555" d="M 85.49 170.32 C 96.29 169.74 107.13 170.25 117.94 170.06 C 117.95 174.35 117.94 178.65 117.95 182.95 C 154.63 182.97 191.30 182.94 227.98 182.96 C 227.97 185.66 227.99 188.36 228.03 191.07 C 264.69 191.14 301.35 191.09 338.01 191.09 C 339.53 191.12 341.05 191.23 342.57 191.38 C 267.70 191.66 192.83 191.32 117.95 191.45 C 117.98 255.48 117.87 319.51 118.01 383.54 C 123.61 386.34 123.99 393.24 124.32 398.71 C 128.01 399.33 133.35 401.26 132.57 405.96 C 131.04 408.75 129.34 411.52 129.37 414.83 C 132.57 413.77 135.72 412.58 138.82 411.26 C 137.59 408.78 134.77 406.16 136.20 403.18 C 137.61 400.15 141.18 399.44 144.11 398.70 C 144.59 393.72 144.57 387.39 149.25 384.32 C 153.85 381.93 158.57 385.44 162.37 387.80 C 164.99 383.74 168.66 379.21 174.01 379.49 C 180.52 380.02 184.74 385.66 188.73 390.18 C 192.72 386.11 198.05 382.12 204.10 383.27 C 208.70 383.91 211.92 388.18 212.17 392.69 C 215.65 392.12 219.38 391.84 222.63 393.48 C 229.37 396.67 233.34 403.95 234.43 411.09 C 235.01 415.20 234.57 420.33 230.84 422.87 C 229.05 424.05 227.45 422.33 225.96 421.54 C 225.62 426.62 226.00 431.82 224.55 436.76 C 231.75 436.88 238.96 436.78 246.16 436.82 C 246.07 439.64 246.15 442.47 246.37 445.28 C 233.79 445.33 221.20 445.24 208.61 445.33 C 207.37 449.37 204.65 453.29 200.27 454.21 C 192.24 455.91 184.04 453.99 175.95 453.77 C 168.98 453.16 161.74 454.23 154.98 452.05 C 152.00 451.26 151.02 448.09 151.37 445.33 C 141.99 445.31 132.61 445.18 123.23 445.41 C 124.25 442.26 125.66 439.25 127.59 436.56 C 134.38 437.15 141.21 436.59 148.01 436.90 C 144.86 435.35 141.43 433.65 139.73 430.39 C 137.14 425.54 138.70 419.94 138.67 414.73 C 138.75 414.10 138.91 412.82 138.99 412.19 C 132.00 414.22 125.42 417.40 118.44 419.45 C 120.90 417.87 123.70 416.99 126.43 416.00 C 126.12 411.93 127.28 407.98 129.86 404.81 C 127.79 402.10 124.30 401.97 121.20 401.77 C 121.04 396.79 121.36 391.25 118.10 387.11 C 117.77 394.76 118.03 402.42 117.95 410.08 C 118.00 413.20 117.61 416.39 118.44 419.45 C 118.15 419.56 117.57 419.78 117.28 419.89 C 117.39 336.79 117.33 253.68 117.31 170.58 C 106.71 170.25 96.09 170.75 85.49 170.32 M 169.84 383.87 C 166.68 385.53 166.11 389.87 162.89 391.24 C 158.70 390.48 154.91 384.72 150.30 387.35 C 146.91 391.28 147.52 396.98 147.25 401.81 C 144.48 402.04 141.17 401.88 139.17 404.19 C 138.31 405.42 139.97 406.54 140.36 407.66 C 144.36 414.10 139.32 421.99 142.35 428.68 C 144.75 433.54 151.42 433.38 154.18 437.91 C 156.20 441.02 154.71 444.79 154.37 448.16 C 158.10 450.61 162.78 450.13 167.03 450.38 C 175.70 450.32 184.31 451.43 192.96 451.78 C 196.84 451.84 201.72 451.69 204.02 448.00 C 206.27 444.69 205.59 440.46 206.72 436.84 C 210.84 433.23 217.09 440.34 221.16 436.16 C 223.37 431.82 222.14 426.68 222.90 422.01 C 223.12 420.07 223.17 416.74 225.89 416.82 C 227.48 417.54 228.33 419.23 229.80 420.16 C 232.58 415.63 231.60 409.97 229.55 405.37 C 227.54 400.87 223.94 396.56 218.91 395.52 C 214.86 394.61 211.05 396.59 207.54 398.31 C 208.20 395.76 209.55 393.04 208.52 390.40 C 207.48 387.33 203.98 385.73 200.89 386.25 C 196.17 387.01 192.51 390.51 189.64 394.11 C 186.12 393.59 184.80 389.76 182.34 387.66 C 179.32 384.36 174.21 380.62 169.84 383.87 Z"/><path fill="#555" d="M 137.06 231.31 C 187.23 231.40 237.40 231.31 287.57 231.35 C 287.51 264.36 287.70 297.38 287.48 330.38 C 237.32 330.29 187.16 330.38 137.00 330.34 C 137.03 297.33 136.90 264.32 137.06 231.31 M 145.77 239.83 C 145.75 251.97 145.75 264.11 145.77 276.25 C 166.48 276.25 187.19 276.26 207.90 276.24 C 207.90 264.11 207.90 251.97 207.90 239.83 C 187.19 239.82 166.48 239.82 145.77 239.83 M 217.49 276.29 C 237.93 276.18 258.38 276.32 278.82 276.22 C 278.80 264.09 278.81 251.97 278.81 239.84 C 258.40 239.76 237.99 239.93 217.58 239.76 C 217.21 251.92 217.39 264.11 217.49 276.29 M 145.73 285.53 C 145.82 297.64 145.71 309.75 145.78 321.86 C 166.48 321.86 187.19 321.86 207.89 321.86 C 207.87 309.71 207.98 297.55 207.83 285.40 C 187.13 285.55 166.43 285.28 145.73 285.53 M 217.41 285.44 C 217.38 297.57 217.42 309.70 217.38 321.83 C 237.86 321.89 258.34 321.86 278.81 321.85 C 278.80 309.71 278.83 297.57 278.79 285.43 C 258.33 285.45 237.87 285.43 217.41 285.44 Z"/><path fill="#555" d="M 288.59 385.20 C 291.41 382.37 294.82 379.56 299.02 379.48 C 301.53 379.31 303.74 380.65 305.73 382.00 C 299.83 382.05 294.27 383.92 288.59 385.20 Z"/><path fill="#555" d="M 56.25 392.71 C 56.56 388.34 59.51 384.13 63.99 383.33 C 70.18 381.93 75.62 386.11 79.80 390.15 C 81.73 387.85 83.72 385.61 85.79 383.44 C 85.98 384.91 86.01 386.38 85.89 387.87 C 83.85 390.22 82.01 392.95 79.12 394.35 C 76.12 390.86 72.65 387.20 67.93 386.32 C 64.86 385.68 61.26 387.05 60.05 390.09 C 58.82 392.76 60.21 395.59 60.87 398.21 C 56.73 396.17 51.81 394.05 47.28 396.24 C 40.14 399.73 36.33 408.37 37.08 416.07 C 37.53 417.26 37.58 420.07 39.40 419.65 C 40.68 418.16 43.47 415.09 44.80 418.22 C 46.36 423.30 45.43 428.74 46.37 433.92 C 46.64 435.08 47.10 436.35 48.19 436.99 C 52.52 439.02 57.32 434.08 61.49 436.50 C 62.88 439.63 62.16 443.39 63.68 446.55 C 64.67 449.28 67.30 451.08 70.12 451.46 C 75.32 452.22 80.59 451.49 85.79 451.08 C 85.79 451.89 85.79 453.51 85.79 454.31 C 79.12 454.50 72.00 456.13 65.68 453.24 C 60.40 450.57 59.44 444.09 59.02 438.81 C 55.75 439.56 52.47 440.86 49.07 440.53 C 45.82 440.21 43.65 437.18 43.24 434.15 C 42.66 430.01 42.73 425.81 42.45 421.65 C 40.91 422.45 39.08 424.09 37.35 422.71 C 33.55 419.76 33.39 414.31 34.20 409.97 C 35.57 403.10 39.60 396.18 46.24 393.29 C 49.39 391.83 52.93 392.15 56.25 392.71 Z"/><path fill="#555" d="M 267.42 383.58 C 272.58 381.89 277.83 384.55 281.68 387.88 C 280.65 388.29 279.64 388.73 278.63 389.20 C 275.04 386.74 269.69 384.55 265.94 387.93 C 262.97 390.43 263.95 394.57 265.09 397.74 C 265.00 397.81 264.82 397.95 264.74 398.01 C 261.41 396.49 257.86 394.67 254.07 395.49 C 248.71 396.52 244.96 401.21 242.98 406.02 C 241.12 410.50 240.32 415.96 243.10 420.26 C 244.40 419.04 245.48 417.48 247.15 416.73 C 249.30 416.96 249.76 419.41 249.13 421.13 C 248.48 423.25 247.74 425.35 247.11 427.49 C 247.04 425.51 246.92 423.53 246.84 421.55 C 245.39 422.28 243.84 423.98 242.11 422.93 C 238.47 420.68 237.86 415.80 238.28 411.91 C 239.17 404.41 243.26 396.67 250.35 393.40 C 253.57 391.82 257.23 392.13 260.65 392.71 C 260.90 388.67 263.39 384.71 267.42 383.58 Z"/><path fill="#555" d="M 330.79 427.90 C 332.78 421.47 329.31 414.60 331.85 408.20 C 332.49 408.62 333.76 409.46 334.40 409.88 L 334.30 410.72 C 333.12 416.92 336.02 423.40 333.54 429.43 C 332.05 433.23 328.29 435.26 324.78 436.86 C 332.53 436.74 340.28 436.88 348.02 436.78 C 347.73 439.61 347.60 442.47 347.07 445.29 C 338.54 445.29 330.00 445.33 321.46 445.27 C 321.37 447.42 321.51 450.12 319.29 451.31 C 315.29 453.57 310.47 453.27 306.03 453.50 C 297.36 453.45 288.74 454.50 280.09 454.92 C 279.68 453.88 279.27 452.85 278.86 451.83 C 288.60 451.39 298.30 450.27 308.06 450.33 C 311.47 450.00 315.48 450.44 318.27 448.09 C 318.29 444.86 316.70 441.39 318.38 438.35 C 321.07 433.23 328.77 433.59 330.79 427.90 Z"/><path fill="#555" d="M 340.90 416.59 C 341.90 417.59 342.89 418.65 343.44 419.99 C 343.32 424.22 343.42 428.93 347.05 431.82 C 347.87 433.01 347.56 434.58 347.69 435.95 C 345.58 434.23 343.04 432.80 341.83 430.25 C 339.60 426.02 340.54 421.12 340.90 416.59 Z"/><path fill="#555" d="M 408.56 437.09 C 409.57 437.68 410.56 438.28 411.56 438.91 C 411.15 443.06 410.74 447.60 407.89 450.91 C 405.23 454.04 400.89 454.85 396.99 454.89 C 389.85 454.96 382.77 453.86 375.64 453.65 C 376.12 452.64 376.59 451.63 377.05 450.62 C 385.37 450.66 393.83 452.89 402.07 451.06 C 407.96 449.31 408.16 442.13 408.56 437.09 Z"/><path fill="#555" d="M 114.05 456.36 C 115.79 456.51 117.42 455.91 118.76 454.84 C 118.49 455.36 117.95 456.41 117.69 456.93 C 107.02 456.98 96.35 457.00 85.68 456.93 L 85.73 456.23 C 95.17 456.45 104.61 456.26 114.05 456.36 Z"/></g><g><path fill="#000" d="M 342.46 35.44 C 356.84 35.41 371.22 35.43 385.60 35.44 C 385.60 36.07 385.61 37.34 385.61 37.98 C 385.63 77.38 385.60 116.78 385.63 156.18 C 403.65 156.19 421.68 156.22 439.70 156.16 C 444.34 156.21 448.99 156.20 453.63 156.05 C 454.82 156.11 456.01 156.22 457.20 156.32 C 457.30 156.96 457.48 158.23 457.58 158.87 C 457.85 159.13 458.40 159.64 458.68 159.90 L 457.39 159.36 C 457.31 162.74 457.32 166.13 457.32 169.52 C 457.50 176.67 456.96 183.84 457.41 190.98 C 433.48 191.46 409.52 190.62 385.61 191.38 C 385.60 255.60 385.66 319.83 385.57 384.05 C 385.79 384.31 386.23 384.83 386.44 385.09 C 385.72 386.25 385.60 387.61 385.55 388.94 C 385.53 390.98 385.55 393.03 385.56 395.09 C 402.14 401.06 418.47 408.01 433.50 417.27 C 434.39 417.82 435.27 418.39 436.15 418.97 C 449.86 427.89 462.42 439.21 470.52 453.58 C 477.39 465.54 480.63 479.35 480.79 493.09 C 470.80 493.13 460.80 493.11 450.81 493.10 C 450.65 480.82 444.50 469.56 436.73 460.41 C 429.56 451.95 420.91 444.82 411.56 438.91 C 410.56 438.28 409.57 437.68 408.56 437.09 C 400.86 432.70 392.70 428.78 383.90 427.25 C 382.63 435.29 380.34 443.17 377.05 450.62 C 376.59 451.63 376.12 452.64 375.64 453.65 C 368.53 467.96 357.79 480.64 344.20 489.16 C 333.84 495.66 321.78 499.12 309.63 500.00 L 302.36 500.00 C 292.07 499.32 281.59 496.90 272.96 491.03 C 257.71 480.90 248.14 463.37 246.37 445.28 C 246.15 442.47 246.07 439.64 246.16 436.82 C 246.36 433.70 246.79 430.60 247.11 427.49 C 247.74 425.35 248.48 423.25 249.13 421.13 C 252.04 412.15 257.67 404.21 264.74 398.01 C 264.82 397.95 265.00 397.81 265.09 397.74 C 269.24 394.36 273.79 391.49 278.63 389.20 C 279.64 388.73 280.65 388.29 281.68 387.88 C 283.99 387.01 286.32 386.18 288.59 385.20 C 294.27 383.92 299.83 382.05 305.73 382.00 C 317.67 380.81 329.72 381.36 341.60 382.89 C 341.90 319.05 342.24 255.21 342.57 191.38 C 341.05 191.23 339.53 191.12 338.01 191.09 C 301.35 191.09 264.69 191.14 228.03 191.07 C 227.99 188.36 227.97 185.66 227.98 182.96 C 228.02 174.03 227.94 165.11 228.02 156.18 C 266.15 156.23 304.28 156.12 342.41 156.24 C 342.70 131.35 342.50 106.46 342.46 81.57 C 342.54 66.20 342.47 50.82 342.46 35.44 M 301.77 404.66 C 291.92 407.45 283.35 414.65 279.17 424.03 C 275.20 432.72 275.31 443.02 278.86 451.83 C 279.27 452.85 279.68 453.88 280.09 454.92 C 284.03 461.44 290.57 466.20 297.35 469.48 C 309.21 474.73 323.82 473.06 334.11 465.13 C 340.59 460.29 345.16 453.12 347.07 445.29 C 347.60 442.47 347.73 439.61 348.02 436.78 L 347.69 435.95 C 347.56 434.58 347.87 433.01 347.05 431.82 C 347.14 427.61 345.29 423.67 343.44 419.99 C 342.89 418.65 341.90 417.59 340.90 416.59 C 339.66 413.85 336.91 412.06 334.77 410.01 L 334.30 410.72 L 334.40 409.88 C 333.76 409.46 332.49 408.62 331.85 408.20 C 322.82 403.12 311.73 401.88 301.77 404.66 Z"/><path fill="#000" d="M 85.49 170.32 C 96.09 170.75 106.71 170.25 117.31 170.58 C 117.33 253.68 117.39 336.79 117.28 419.89 C 117.57 419.78 118.15 419.56 118.44 419.45 C 125.42 417.40 132.00 414.22 138.99 412.19 C 138.91 412.82 138.75 414.10 138.67 414.73 C 135.24 422.13 131.75 429.55 127.59 436.56 C 125.66 439.25 124.25 442.26 123.23 445.41 C 122.02 448.68 120.32 451.73 118.76 454.84 C 117.42 455.91 115.79 456.51 114.05 456.36 C 104.61 456.26 95.17 456.45 85.73 456.23 C 85.74 455.75 85.78 454.79 85.79 454.31 C 85.79 453.51 85.79 451.89 85.79 451.08 C 85.41 436.09 85.73 421.08 85.62 406.08 C 85.74 400.01 85.34 393.92 85.89 387.87 C 86.01 386.38 85.98 384.91 85.79 383.44 C 85.40 356.63 85.74 329.79 85.62 302.97 C 85.74 265.96 85.40 228.93 85.79 191.91 C 70.21 191.56 54.61 191.73 39.02 191.44 C 26.01 191.41 13.01 192.05 0.00 191.73 L 0.00 191.26 C 0.41 191.01 1.23 190.50 1.64 190.25 C 5.49 191.88 9.90 190.69 13.98 191.08 C 38.03 191.86 62.07 190.99 86.12 191.04 C 86.35 188.30 86.24 185.56 85.86 182.85 C 85.42 178.68 85.74 174.49 85.49 170.32 Z"/></g></svg>
