<?xml version="1.0" encoding="UTF-8" ?>
<!DOCTYPE svg PUBLIC "-//W3C//DTD SVG 1.1//EN" "http://www.w3.org/Graphics/SVG/1.1/DTD/svg11.dtd">
<svg width="120pt" height="120pt" viewBox="0 0 500 500" version="1.1" xmlns="http://www.w3.org/2000/svg"><g><path fill="#000" d="M 344.63 0.00 L 387.67 0.00 C 387.68 15.80 387.65 31.60 387.68 47.40 C 414.26 47.52 440.85 47.19 467.42 47.56 C 467.14 55.94 467.58 64.33 467.18 72.71 C 440.68 72.52 414.18 72.67 387.68 72.63 C 387.63 101.77 387.70 130.92 387.64 160.06 C 387.63 161.22 387.71 162.41 388.15 163.50 C 387.27 167.18 387.77 170.97 387.67 174.71 C 387.67 188.92 387.65 203.13 387.68 217.35 C 409.49 217.34 431.30 217.43 453.11 217.30 C 457.87 217.37 462.62 217.32 467.38 217.41 C 467.31 220.28 467.32 223.15 467.38 226.02 C 468.19 226.80 469.02 227.59 469.86 228.37 C 469.29 228.54 468.15 228.87 467.58 229.04 C 467.08 231.94 467.36 234.91 467.34 237.84 C 467.33 239.42 467.33 241.00 467.33 242.58 C 446.95 242.61 426.57 242.58 406.19 242.59 C 402.58 242.59 398.97 242.59 395.36 242.59 C 392.80 242.59 390.24 242.59 387.68 242.60 C 387.62 293.96 387.73 345.32 387.62 396.68 C 387.54 398.93 387.67 401.17 388.03 403.40 C 387.51 405.88 387.53 408.42 387.62 410.94 C 404.21 416.07 421.17 423.32 432.53 436.98 C 434.53 439.45 436.38 442.04 438.06 444.74 C 447.07 461.28 447.76 480.60 448.07 499.00 L 418.11 499.00 C 418.15 486.87 416.85 474.56 412.64 463.11 C 411.87 461.14 411.05 459.20 410.12 457.31 C 405.57 447.66 396.86 439.56 386.03 437.97 C 384.73 444.34 382.80 450.60 379.96 456.47 C 378.93 458.55 377.84 460.61 376.65 462.60 C 369.52 474.20 359.31 484.08 346.91 489.87 C 333.97 496.17 319.34 499.44 304.95 497.90 C 290.04 496.38 275.57 489.69 265.28 478.72 C 258.44 471.47 253.52 462.18 252.47 452.19 C 252.29 449.11 252.37 446.02 252.85 442.97 C 253.27 441.01 253.82 439.08 254.49 437.19 C 255.64 434.21 257.27 431.43 259.15 428.84 C 263.29 423.46 268.80 419.28 274.78 416.15 C 275.30 415.89 276.33 415.37 276.85 415.11 C 281.09 413.09 285.52 411.51 290.04 410.25 C 293.10 409.43 296.19 408.69 299.31 408.09 C 304.47 407.23 309.66 406.56 314.89 406.19 C 322.65 405.66 330.45 405.57 338.23 405.91 C 340.42 406.01 342.62 406.13 344.82 406.23 C 344.80 351.69 344.77 297.15 344.75 242.61 C 320.37 242.56 295.99 242.62 271.62 242.58 C 271.61 241.00 271.61 239.42 271.61 237.84 C 271.62 234.77 271.61 231.70 271.60 228.63 C 271.61 224.91 271.64 221.19 271.55 217.47 C 295.95 217.16 320.36 217.53 344.76 217.29 C 344.69 193.85 344.73 170.41 344.70 146.97 C 344.69 143.09 344.69 139.21 344.70 135.33 C 344.58 114.40 344.88 93.46 344.51 72.53 C 320.20 72.68 295.88 72.68 271.57 72.54 C 271.64 64.19 271.63 55.84 271.58 47.49 C 295.90 47.33 320.23 47.40 344.56 47.46 C 344.78 31.64 344.59 15.82 344.63 0.00 M 281.76 434.81 C 278.06 441.15 277.58 449.07 280.00 455.95 C 281.06 458.65 282.00 461.61 284.22 463.63 C 295.06 475.28 313.02 479.33 328.01 474.04 C 338.05 470.73 347.03 462.77 349.48 452.21 C 349.99 449.19 349.99 446.13 349.86 443.09 L 349.53 443.08 C 348.63 439.14 347.70 435.07 345.22 431.80 C 343.42 429.37 341.43 426.92 338.70 425.50 L 338.70 425.13 C 329.93 418.74 318.50 416.82 307.89 418.26 C 297.42 419.77 287.09 425.42 281.76 434.81 Z"/><path fill="#000" d="M 95.93 221.60 C 106.38 221.58 116.83 221.58 127.28 221.61 C 127.28 223.94 127.29 226.28 127.29 228.62 C 127.29 231.69 127.29 234.77 127.29 237.84 C 127.29 291.84 127.28 345.83 127.29 399.83 C 127.28 401.96 127.29 404.09 127.37 406.23 C 127.20 414.92 127.32 423.62 127.29 432.32 C 129.81 431.58 132.31 430.80 134.81 429.99 C 136.79 429.35 138.78 428.72 140.76 428.09 C 142.94 427.42 145.09 426.67 147.28 426.05 C 147.86 425.95 149.00 425.73 149.58 425.63 C 148.71 427.23 147.82 428.83 146.92 430.43 C 144.35 434.52 142.02 438.76 139.59 442.93 C 137.63 445.97 135.79 449.07 133.98 452.20 C 131.70 455.93 129.54 459.74 127.21 463.45 C 116.76 463.38 106.31 463.46 95.86 463.43 C 95.89 461.28 95.92 459.15 95.92 457.02 C 95.92 440.55 95.92 424.08 95.92 407.62 C 95.90 347.95 95.92 288.29 95.91 228.62 C 95.91 226.28 95.92 223.94 95.93 221.60 Z"/></g><g><path fill="#555" d="M 0.00 236.00 C 83.27 181.89 166.66 127.96 249.99 73.93 C 281.57 94.38 313.18 114.79 344.70 135.33 C 344.69 139.21 344.69 143.09 344.70 146.97 C 313.20 126.40 281.57 106.01 250.00 85.53 C 180.12 130.80 110.26 176.09 40.39 221.37 C 36.76 223.77 33.01 226.00 29.51 228.59 C 51.64 228.65 73.78 228.58 95.91 228.62 C 95.92 288.29 95.90 347.95 95.92 407.62 C 93.98 409.85 91.60 411.64 88.87 412.79 C 85.58 410.09 82.44 406.71 78.05 405.97 C 75.46 405.39 71.75 406.10 71.06 409.09 C 71.45 411.98 72.90 414.60 73.82 417.35 C 69.38 415.73 64.98 412.92 60.06 413.62 C 52.66 414.82 47.35 422.96 48.80 430.24 C 50.26 429.11 51.90 428.24 53.72 427.89 C 59.45 431.62 56.10 439.43 58.28 444.89 C 62.45 446.97 67.16 442.70 71.47 444.50 C 74.03 445.61 73.63 448.75 74.12 451.00 C 74.37 453.42 75.58 456.08 78.11 456.79 C 83.92 458.38 90.01 457.24 95.92 457.02 C 95.92 459.15 95.89 461.28 95.86 463.43 C 88.89 463.33 81.52 465.03 74.87 462.19 C 70.32 460.26 68.19 455.29 67.71 450.65 C 63.52 451.36 58.65 452.90 54.88 450.10 C 50.87 447.08 51.41 441.57 51.11 437.14 C 46.62 437.85 43.04 434.06 42.48 429.87 C 40.81 417.68 52.35 405.22 64.87 407.41 C 66.22 403.80 69.13 400.76 73.00 399.98 C 79.04 398.43 84.98 401.44 89.64 405.06 C 91.22 403.23 94.25 401.85 93.83 399.02 C 93.77 345.30 93.83 291.58 93.80 237.85 C 66.20 237.82 38.60 237.85 11.00 237.84 C 7.33 237.80 3.64 238.09 0.00 237.47 L 0.00 236.00 Z"/><path fill="#555" d="M 387.67 174.71 C 387.77 170.97 387.27 167.18 388.15 163.50 C 425.48 187.59 462.76 211.76 500.00 236.00 L 500.00 237.47 C 489.15 238.32 478.22 237.60 467.34 237.84 C 467.36 234.91 467.08 231.94 467.58 229.04 C 468.15 228.87 469.29 228.54 469.86 228.37 C 469.02 227.59 468.19 226.80 467.38 226.02 C 467.32 223.15 467.31 220.28 467.38 217.41 C 462.62 217.32 457.87 217.37 453.11 217.30 C 431.43 202.90 409.42 189.00 387.67 174.71 Z"/><path fill="#555" d="M 127.29 228.62 C 175.40 228.61 223.50 228.59 271.60 228.63 C 271.61 231.70 271.62 234.77 271.61 237.84 C 223.50 237.84 175.40 237.84 127.29 237.84 C 127.29 234.77 127.29 231.69 127.29 228.62 Z"/><path fill="#555" d="M 395.36 242.59 C 398.97 242.59 402.58 242.59 406.19 242.59 C 406.19 295.44 406.22 348.28 406.17 401.13 C 410.49 399.50 415.57 398.71 419.77 401.13 C 422.33 402.38 423.80 404.90 424.89 407.41 C 437.45 405.20 449.06 417.74 447.28 429.97 C 446.72 434.21 443.04 437.79 438.60 437.22 C 438.57 439.73 438.41 442.24 438.06 444.74 C 436.38 442.04 434.53 439.45 432.53 436.98 C 432.55 433.62 432.73 429.68 436.07 427.90 C 437.91 428.28 439.59 429.11 441.10 430.22 C 442.29 422.98 437.26 414.94 429.89 413.64 C 424.92 412.84 420.49 415.74 415.98 417.30 C 416.87 414.56 418.38 411.95 418.71 409.07 C 418.21 406.59 415.30 405.63 413.06 405.81 C 408.17 406.07 404.49 409.63 401.11 412.77 C 395.78 411.06 393.06 405.63 388.03 403.40 C 387.67 401.17 387.54 398.93 387.62 396.68 C 390.42 397.59 393.06 398.94 395.44 400.67 C 395.26 347.98 395.43 295.28 395.36 242.59 Z"/><path fill="#555" d="M 146.90 273.22 C 196.92 273.28 246.94 273.27 296.95 273.22 C 297.15 301.09 297.00 328.96 297.03 356.84 C 246.96 356.84 196.88 356.84 146.81 356.84 C 146.86 328.96 146.67 301.08 146.90 273.22 M 155.52 280.47 C 155.58 290.70 155.52 300.94 155.56 311.17 C 176.19 311.20 196.82 311.12 217.44 311.21 C 217.68 300.96 217.49 290.69 217.54 280.43 C 196.87 280.44 176.19 280.36 155.52 280.47 M 226.95 280.55 C 227.12 290.76 226.97 300.96 227.03 311.17 C 247.45 311.18 267.87 311.18 288.29 311.17 C 288.35 300.97 288.21 290.77 288.36 280.57 C 267.90 280.32 247.41 280.34 226.95 280.55 M 155.56 318.94 C 155.50 329.15 155.62 339.37 155.50 349.58 C 176.18 349.79 196.86 349.62 217.55 349.66 C 217.58 339.46 217.49 329.26 217.59 319.06 C 196.92 318.78 176.23 319.01 155.56 318.94 M 227.03 318.94 C 227.05 329.20 226.95 339.45 227.08 349.71 C 247.51 349.50 267.96 349.93 288.38 349.49 C 288.18 339.31 288.36 329.12 288.29 318.94 C 267.87 318.93 247.45 318.93 227.03 318.94 Z"/><path fill="#555" d="M 171.73 403.09 C 174.60 399.73 178.35 396.56 183.02 396.54 C 189.28 396.49 194.29 400.85 198.43 405.05 C 203.07 401.49 208.93 398.46 214.94 399.95 C 218.86 400.69 221.86 403.75 223.20 407.42 C 235.74 405.20 247.32 417.73 245.58 429.94 C 245.02 434.11 241.41 437.86 236.96 437.13 C 236.86 439.07 236.76 441.01 236.67 442.96 C 242.06 442.98 247.46 442.96 252.85 442.97 C 252.37 446.02 252.29 449.11 252.47 452.19 C 241.74 452.22 231.01 452.20 220.28 452.20 C 219.29 457.14 216.08 462.00 210.84 463.03 C 202.01 464.94 192.96 462.86 184.05 462.83 C 177.08 462.32 169.76 463.41 163.11 460.86 C 159.56 459.52 159.22 455.39 159.93 452.18 C 151.28 452.23 142.63 452.19 133.98 452.20 C 135.79 449.07 137.63 445.97 139.59 442.93 C 142.56 442.97 145.54 442.97 148.51 443.01 C 146.25 439.20 146.10 434.68 146.92 430.43 C 147.82 428.83 148.71 427.23 149.58 425.63 C 149.00 425.73 147.86 425.95 147.28 426.05 C 146.07 424.51 145.02 422.84 144.05 421.15 C 142.66 423.31 140.98 425.41 140.76 428.09 C 138.78 428.72 136.79 429.35 134.81 429.99 C 134.45 426.37 135.15 422.75 137.30 419.78 C 134.74 419.18 132.11 419.01 129.49 419.01 C 129.47 414.68 129.63 410.10 127.37 406.23 C 127.29 404.09 127.28 401.96 127.29 399.83 C 133.13 401.19 135.43 407.40 135.57 412.81 C 138.96 413.77 142.63 415.11 144.07 418.66 C 145.39 415.09 149.09 413.79 152.44 412.88 C 152.90 408.32 154.00 402.80 158.62 400.68 C 163.08 398.68 167.75 401.12 171.73 403.09 M 181.07 403.24 C 177.34 404.67 176.32 409.63 172.02 410.06 C 168.22 409.28 164.81 405.05 160.75 406.62 C 158.09 410.06 158.75 414.82 158.67 418.92 C 156.04 419.09 153.37 419.06 150.82 419.83 C 152.63 422.50 153.70 425.69 153.26 428.95 C 153.25 432.34 151.69 436.17 153.69 439.27 C 156.54 442.49 161.51 442.44 164.39 445.68 C 167.06 448.11 166.83 452.04 165.86 455.20 C 170.07 456.70 174.64 456.22 179.03 456.46 C 187.37 456.46 195.66 457.49 204.00 457.60 C 207.02 457.46 210.85 457.51 212.73 454.69 C 214.72 451.92 213.44 448.05 215.43 445.35 C 219.64 441.62 225.32 447.25 229.77 444.88 C 232.05 439.55 228.58 431.70 234.23 428.02 C 236.12 428.13 237.81 428.90 239.14 430.26 C 240.87 423.29 235.77 415.50 228.90 413.78 C 223.75 412.57 219.03 415.59 214.39 417.31 C 215.05 414.48 216.73 411.94 217.02 409.05 C 215.69 404.92 210.13 405.32 206.98 406.97 C 203.83 408.11 201.95 411.22 199.03 412.56 C 194.77 411.39 192.51 407.31 188.99 404.99 C 186.75 403.42 183.78 401.99 181.07 403.24 Z"/><path fill="#555" d="M 293.54 405.05 C 297.69 400.86 302.70 396.47 308.97 396.54 C 313.64 396.56 317.39 399.75 320.26 403.10 C 324.04 401.21 328.33 398.93 332.65 400.41 C 335.33 401.19 336.87 403.65 338.23 405.91 C 330.45 405.57 322.65 405.66 314.89 406.19 C 312.92 404.56 310.82 402.39 308.02 402.80 C 304.53 403.33 301.81 405.80 299.31 408.09 C 296.19 408.69 293.10 409.43 290.04 410.25 C 287.08 408.04 283.82 405.68 279.94 405.80 C 277.87 405.80 275.40 406.85 274.95 409.09 C 275.18 411.20 276.15 413.12 276.85 415.11 C 276.33 415.37 275.30 415.89 274.78 416.15 C 270.82 414.46 266.40 412.52 262.07 414.06 C 255.70 416.29 251.37 423.53 252.69 430.21 C 254.52 428.77 256.88 427.40 259.15 428.84 C 257.27 431.43 255.64 434.21 254.49 437.19 C 250.19 437.62 246.95 433.87 246.39 429.91 C 244.67 417.72 256.24 405.19 268.76 407.44 C 270.10 403.77 273.09 400.71 277.00 399.95 C 283.02 398.45 288.90 401.47 293.54 405.05 Z"/><path fill="#555" d="M 338.70 425.50 C 341.43 426.92 343.42 429.37 345.22 431.80 C 345.92 435.62 345.43 439.60 343.47 442.99 C 345.48 442.95 347.50 443.00 349.53 443.08 L 349.86 443.09 C 349.99 446.13 349.99 449.19 349.48 452.21 C 343.67 452.19 337.85 452.22 332.04 452.18 C 332.57 455.11 332.65 458.90 329.57 460.48 C 324.16 463.18 317.86 462.37 312.01 462.72 C 302.73 462.67 293.49 464.29 284.22 463.63 C 282.00 461.61 281.06 458.65 280.00 455.95 C 285.94 458.72 292.64 457.28 298.92 457.08 C 307.90 456.19 316.97 456.94 325.91 455.60 C 325.55 452.44 324.72 448.72 327.15 446.14 C 330.08 442.30 336.00 442.67 338.67 438.64 C 340.15 434.41 338.25 429.87 338.70 425.50 Z"/><path fill="#555" d="M 376.65 462.60 C 377.84 460.61 378.93 458.55 379.96 456.47 C 390.03 456.27 400.06 458.17 410.12 457.31 C 411.05 459.20 411.87 461.14 412.64 463.11 C 400.70 464.96 388.65 462.21 376.65 462.60 Z"/></g></svg>
