<?xml version="1.0" standalone="no"?>
<!DOCTYPE svg PUBLIC "-//W3C//DTD SVG 20010904//EN"
 "http://www.w3.org/TR/2001/REC-SVG-20010904/DTD/svg10.dtd">
<svg version="1.0" xmlns="http://www.w3.org/2000/svg"
 width="1024.000000pt" height="1024.000000pt" viewBox="0 0 1024.000000 1024.000000"
 preserveAspectRatio="xMidYMid meet">
<metadata>
Created by potrace 1.11, written by Peter Selinger 2001-2013
</metadata>
<g transform="translate(0.000000,1024.000000) scale(0.100000,-0.100000)"
fill="#000000" stroke="none">
<path d="M3887 9955 c-1 -2 -31 -5 -67 -8 -209 -18 -346 -156 -365 -369 -3
-34 -8 -90 -11 -123 -11 -121 -13 -152 -20 -265 -12 -195 -23 -425 -29 -604
-2 -57 -8 -102 -14 -105 -13 -8 -428 -13 -1396 -16 -734 -2 -737 -2 -822 -51
-116 -69 -173 -175 -178 -332 -3 -115 16 -197 63 -271 40 -64 60 -83 124 -116
106 -56 110 -56 883 -50 391 3 841 8 1001 11 l291 5 -3 -103 c-16 -621 -22
-1300 -14 -1566 l4 -114 -180 -88 c-339 -166 -683 -378 -914 -562 -80 -63
-189 -153 -245 -201 -90 -77 -341 -330 -428 -431 -303 -350 -547 -757 -681
-1136 -15 -41 -29 -82 -33 -90 -3 -8 -7 -19 -8 -25 -2 -5 -15 -49 -29 -97 -30
-96 -82 -338 -92 -427 -3 -31 -8 -64 -10 -74 -6 -34 -17 -251 -17 -337 0 -440
111 -825 321 -1119 225 -313 580 -522 970 -568 83 -10 361 -9 462 1 535 53
1079 288 1600 690 47 36 87 62 91 58 3 -4 18 -36 34 -72 36 -83 83 -188 98
-219 24 -49 99 -121 153 -147 191 -93 474 17 577 225 29 60 32 73 32 166 0
105 -7 131 -71 270 -15 33 -28 62 -29 65 -1 3 -7 16 -13 30 -6 14 -34 81 -62
150 -28 69 -54 130 -56 136 -5 11 9 29 80 104 91 96 270 318 405 501 111 151
360 541 454 710 14 24 48 87 77 139 77 138 270 527 325 655 26 61 57 133 70
160 12 28 44 104 70 170 26 66 51 129 56 140 40 91 232 653 244 715 8 40 58
206 64 213 8 8 143 -12 266 -39 39 -9 77 -17 85 -19 258 -57 552 -182 775
-330 136 -91 165 -114 290 -240 146 -146 224 -249 316 -419 67 -125 150 -344
165 -436 3 -19 8 -38 10 -41 7 -11 33 -155 42 -234 22 -187 21 -424 -4 -607
-5 -40 -46 -236 -58 -278 -89 -314 -246 -597 -471 -849 -235 -265 -575 -504
-937 -661 -51 -22 -102 -45 -113 -50 -130 -58 -489 -165 -690 -205 -11 -2 -32
-7 -47 -10 -16 -3 -38 -7 -50 -10 -41 -8 -162 -27 -197 -30 -19 -2 -50 -6 -70
-9 -81 -12 -198 -25 -291 -31 -183 -12 -216 -17 -274 -36 -171 -58 -259 -198
-252 -402 7 -173 87 -301 232 -373 28 -13 64 -28 80 -32 54 -13 391 -5 524 13
27 3 139 16 180 20 41 4 134 19 185 29 11 2 40 7 65 11 25 4 54 9 65 12 11 2
45 8 75 14 445 83 994 286 1376 510 179 104 441 288 554 389 154 138 235 220
389 395 63 71 188 249 258 365 226 375 357 775 400 1217 15 154 8 564 -12 687
-2 11 -6 39 -10 61 -44 306 -143 614 -282 875 -45 85 -192 312 -235 362 -13
14 -39 46 -58 70 -58 72 -250 259 -340 331 -233 187 -512 347 -810 465 -134
53 -425 145 -528 167 -9 2 -51 11 -92 20 -41 9 -84 18 -95 21 -11 2 -31 6 -45
9 -53 11 -77 15 -125 21 -27 4 -52 8 -54 10 -3 3 1 30 8 62 66 303 78 378 70
449 -4 40 -17 92 -27 117 -43 96 -154 170 -296 196 -165 31 -289 4 -381 -81
-61 -57 -89 -120 -111 -259 -3 -19 -17 -89 -30 -155 -32 -155 -32 -152 -44
-206 l-11 -46 -87 0 c-93 0 -424 -12 -482 -18 -19 -2 -73 -6 -120 -10 -47 -3
-98 -8 -115 -10 -16 -1 -57 -6 -90 -9 -56 -6 -107 -13 -165 -21 -14 -2 -45 -7
-70 -10 -93 -12 -339 -55 -430 -76 -52 -11 -104 -23 -115 -25 -11 -2 -62 -14
-114 -28 l-94 -23 7 601 c8 683 13 917 22 925 3 3 27 7 52 7 26 1 121 5 212 9
91 3 210 8 265 10 55 3 143 7 195 10 52 2 147 7 210 10 63 3 149 8 190 10 41
3 118 7 170 10 52 3 124 7 160 10 36 2 112 7 170 10 58 4 128 8 155 10 28 2
91 7 140 10 50 3 106 7 125 10 19 2 84 7 144 10 60 4 116 8 125 10 9 1 66 6
126 10 61 3 121 8 135 10 14 2 61 6 105 10 44 3 91 8 105 10 14 2 61 6 105 10
44 4 94 8 110 10 17 2 59 6 95 10 119 11 165 16 200 20 19 3 60 7 90 10 30 3
114 13 185 21 72 8 146 17 165 19 43 5 114 14 160 20 19 3 55 7 80 10 283 33
387 75 464 188 49 74 65 137 62 254 -2 112 -5 123 -44 207 -34 70 -72 114
-135 150 -105 62 -213 69 -463 32 -93 -14 -191 -28 -219 -31 -27 -4 -61 -8
-75 -10 -14 -2 -47 -7 -75 -10 -72 -9 -126 -16 -155 -20 -35 -5 -105 -13 -173
-20 -32 -4 -66 -8 -76 -10 -9 -2 -51 -6 -92 -10 -41 -4 -87 -9 -104 -11 -16
-2 -59 -6 -95 -9 -36 -3 -76 -8 -90 -10 -14 -2 -61 -7 -105 -10 -44 -4 -91 -8
-105 -10 -14 -2 -59 -7 -100 -10 -81 -6 -149 -13 -220 -20 -52 -5 -159 -13
-380 -29 -47 -3 -112 -8 -145 -11 -65 -5 -147 -11 -290 -20 -195 -12 -234 -14
-350 -20 -66 -3 -147 -8 -180 -10 -33 -3 -116 -7 -185 -10 -69 -3 -170 -8
-225 -10 -55 -3 -158 -8 -228 -11 l-129 -5 7 118 c3 65 8 141 10 168 2 28 6
95 10 150 3 55 7 125 10 155 3 30 10 111 15 180 6 69 13 152 17 185 24 250
-25 374 -173 441 -54 24 -224 59 -237 49z m1973 -4275 c0 -6 -18 -73 -40 -148
-254 -882 -686 -1753 -1214 -2450 -101 -134 -109 -139 -120 -81 -2 13 -18 78
-34 144 -38 150 -75 316 -103 465 -12 63 -23 124 -25 135 -4 19 -7 40 -19 110
-3 17 -12 77 -21 135 -8 58 -17 116 -19 130 -3 14 -7 50 -11 80 -3 30 -7 66
-10 80 -2 14 -6 50 -9 80 -3 30 -8 69 -10 85 -2 17 -6 62 -10 100 -3 39 -8 88
-10 110 -6 56 -14 156 -20 250 -12 197 -16 268 -20 390 l-4 130 81 29 c80 28
107 36 258 77 64 18 261 60 340 74 101 17 284 42 375 51 33 3 74 7 90 9 17 2
82 7 145 10 63 4 116 7 117 8 1 1 67 3 147 5 104 2 146 0 146 -8z m-2475 -701
c3 -46 7 -111 10 -144 3 -33 7 -91 10 -130 6 -80 13 -162 20 -220 3 -22 7 -67
10 -100 7 -78 14 -142 20 -180 2 -16 7 -57 11 -90 3 -33 7 -67 9 -75 4 -22 14
-89 20 -135 3 -22 8 -57 11 -78 7 -43 9 -62 19 -137 4 -30 9 -58 11 -62 2 -3
7 -30 10 -60 3 -29 8 -56 10 -59 2 -4 6 -24 10 -45 3 -22 9 -57 14 -79 5 -22
11 -56 15 -75 3 -19 21 -109 41 -199 20 -90 37 -171 39 -180 13 -61 92 -352
130 -481 l47 -154 -28 -24 c-16 -14 -42 -36 -59 -51 -56 -49 -239 -187 -330
-248 -328 -218 -647 -348 -960 -391 -98 -14 -296 -7 -378 12 -286 66 -477 286
-544 626 -19 100 -25 382 -9 485 10 65 16 98 21 125 3 13 7 41 10 62 18 119
108 390 186 555 100 214 264 475 401 639 149 179 281 312 468 478 112 99 483
364 560 400 8 4 53 29 100 56 46 27 86 48 87 46 2 -1 5 -40 8 -87z"/>
</g>
</svg>
